<svg xmlns="http://www.w3.org/2000/svg" width="16.704" height="16.701" viewBox="0 0 16.704 16.701">
  <path id="instagram-brands" d="M8.279,35.894a4.282,4.282,0,1,0,4.282,4.282A4.275,4.275,0,0,0,8.279,35.894Zm0,7.066a2.784,2.784,0,1,1,2.784-2.784,2.789,2.789,0,0,1-2.784,2.784Zm5.456-7.241a1,1,0,1,1-1-1A1,1,0,0,1,13.735,35.718Zm2.836,1.014a4.943,4.943,0,0,0-1.349-3.5,4.975,4.975,0,0,0-3.5-1.349c-1.379-.078-5.512-.078-6.89,0a4.968,4.968,0,0,0-3.5,1.345,4.959,4.959,0,0,0-1.349,3.5c-.078,1.379-.078,5.512,0,6.891a4.943,4.943,0,0,0,1.349,3.5,4.981,4.981,0,0,0,3.5,1.349c1.379.078,5.512.078,6.89,0a4.942,4.942,0,0,0,3.5-1.349,4.975,4.975,0,0,0,1.349-3.5C16.649,42.24,16.649,38.111,16.571,36.732ZM14.789,45.1A2.818,2.818,0,0,1,13.2,46.686c-1.1.436-3.708.335-4.923.335s-3.827.1-4.923-.335A2.818,2.818,0,0,1,1.769,45.1c-.436-1.1-.335-3.708-.335-4.923s-.1-3.827.335-4.923a2.818,2.818,0,0,1,1.588-1.588c1.1-.436,3.708-.335,4.923-.335s3.827-.1,4.923.335a2.818,2.818,0,0,1,1.588,1.588c.436,1.1.335,3.708.335,4.923S15.225,44,14.789,45.1Z" transform="translate(0.075 -31.825)" fill="#ffab00"/>
</svg>
