<svg xmlns="http://www.w3.org/2000/svg" width="19.08" height="15.497" viewBox="0 0 19.08 15.497">
  <path id="twitter-brands" d="M17.119,51.944c.012.169.012.339.012.509A11.05,11.05,0,0,1,6,63.579a11.05,11.05,0,0,1-6-1.755,8.089,8.089,0,0,0,.944.048A7.831,7.831,0,0,0,5.8,60.2a3.917,3.917,0,0,1-3.656-2.712,4.931,4.931,0,0,0,.739.061,4.135,4.135,0,0,0,1.029-.133A3.911,3.911,0,0,1,.775,53.579V53.53a3.938,3.938,0,0,0,1.768.5A3.917,3.917,0,0,1,1.332,48.8a11.115,11.115,0,0,0,8.063,4.092,4.415,4.415,0,0,1-.1-.9,3.914,3.914,0,0,1,6.768-2.676,7.7,7.7,0,0,0,2.482-.944,3.9,3.9,0,0,1-1.719,2.155,7.839,7.839,0,0,0,2.252-.605A8.406,8.406,0,0,1,17.119,51.944Z" transform="translate(0 -48.082)" fill="#ffab00"/>
</svg>
